<svg xmlns="http://www.w3.org/2000/svg" viewBox="0 0 100 100" fill="none"><mask id="agentcut-mark" maskUnits="userSpaceOnUse" x="0" y="0" width="100" height="100"><g fill="#fff"><g transform="translate(50 51) scale(0.86) translate(-50 -50)"><g transform="rotate(-4 50 50)"><circle cx="32" cy="72" r="21"/><circle cx="68" cy="72" r="21"/><path d="M13 9C30.97 17.02 46.14 28.69 58.5 44L38 55C29.67 39.67 21.33 24.33 13 9Z"/><g transform="translate(100 0) scale(-1 1)"><path d="M13 9C30.97 17.02 46.14 28.69 58.5 44L38 55C29.67 39.67 21.33 24.33 13 9Z"/></g></g></g></g><g fill="#000"><g transform="translate(50 51) scale(0.86) translate(-50 -50)"><g transform="rotate(-4 50 50)"><ellipse cx="32" cy="69.4" rx="9.4" ry="12.4"/><ellipse cx="68" cy="69.4" rx="9.4" ry="12.4"/><circle cx="50" cy="49.5" r="3.6"/></g></g></g><g fill="#fff"><g transform="translate(50 51) scale(0.86) translate(-50 -50)"><g transform="rotate(-4 50 50)"><circle cx="35.38" cy="63.7" r="2.35"/><circle cx="71.38" cy="63.7" r="2.35"/></g></g></g></mask><rect width="100" height="100" fill="currentColor" mask="url(#agentcut-mark)"/></svg>
